<svg width="42" height="42" viewBox="0 0 42 42" fill="none" xmlns="http://www.w3.org/2000/svg">
<g clip-path="url(#clip0_37413_5917)">
<rect x="0.742188" y="0.741211" width="40" height="40" rx="2.96296" fill="white"/>
<path d="M15.4216 15.1829H7.63666C6.69271 15.1829 5.92676 15.9674 5.92676 16.9363V24.6439C5.92676 25.6039 6.67756 26.3834 7.61104 26.3972L15.416 26.3975C16.36 26.3975 17.1277 25.6128 17.1277 24.6439L17.1315 16.9363C17.1315 15.9674 16.3653 15.1829 15.4216 15.1829ZM8.56191 25.499L8.13705 25.5041C7.62263 25.5041 7.20735 25.0806 7.20735 24.5601L7.20423 24.485V17.3674L7.20735 16.9837C7.22807 16.4802 7.61015 16.0734 8.11143 16.0734H8.97429C9.75784 16.0734 10.3915 16.754 10.3915 17.5556C10.3915 17.9537 10.2355 18.3131 9.9833 18.5758L7.78148 20.809L9.84607 22.9121C10.1112 23.1871 10.2716 23.5478 10.2716 23.9419C10.2716 24.8016 9.50765 25.499 8.56191 25.499ZM14.9092 25.4925L11.0596 25.4914C11.0596 25.4914 11.5047 24.5285 11.5047 23.9334C11.5047 23.2078 11.2621 22.5584 10.8823 22.1297L9.56624 20.7872L10.9083 19.4001C11.31 19.0227 11.5751 18.355 11.5751 17.5955C11.5751 16.9938 11.4089 16.4606 11.1398 16.0734H12.0731C12.8559 16.0734 13.4902 16.754 13.4902 17.5556C13.4902 17.9537 13.3349 18.3131 13.0834 18.5758L10.9224 20.7863L15.4093 25.3622C15.2663 25.4517 15.0876 25.4925 14.9092 25.4925ZM15.8482 24.0633L12.6323 20.7856L14.1637 19.2297C14.4758 18.8387 14.6746 18.2516 14.6746 17.5955C14.6746 16.9902 14.5053 16.443 14.235 16.056L14.9196 16.0774C15.4332 16.0774 15.8509 16.4996 15.8509 17.0216L15.8482 24.0633Z" fill="#00529C"/>
<path d="M24.0312 20.2639C24.0938 20.2013 24.1678 20.1207 24.2531 20.022C24.3382 19.9233 24.4189 19.8068 24.4951 19.6722C24.5713 19.5377 24.6363 19.3877 24.69 19.2217C24.7439 19.056 24.7709 18.8789 24.7709 18.6906C24.7709 18.3232 24.708 17.9804 24.5826 17.662C24.457 17.3438 24.2642 17.0658 24.0043 16.8281C23.7443 16.5908 23.4194 16.4046 23.0293 16.27C22.6394 16.1357 22.1843 16.0684 21.6645 16.0684H21.6503H20.1558H19.7668H18.2354V17.7825V23.7167V25.4814H22.0007C22.5474 25.4814 23.0246 25.4075 23.4328 25.2595C23.8405 25.1116 24.1791 24.9078 24.448 24.6478C24.717 24.3878 24.9164 24.0852 25.0465 23.7401C25.1763 23.395 25.2414 23.0252 25.2414 22.6306C25.2414 22.1017 25.1204 21.6312 24.8785 21.2186C24.6363 20.8064 24.3538 20.4881 24.0312 20.2639ZM22.3663 17.7932C22.4931 17.8416 22.5989 17.9044 22.6816 17.9835C22.8957 18.1889 23.0028 18.4344 23.0028 18.72C23.0028 18.9791 22.958 19.1932 22.8689 19.3628C22.7796 19.5325 22.6902 19.662 22.6011 19.7511H19.9836V17.682H21.6106C21.9156 17.682 22.1667 17.7197 22.3663 17.7932ZM22.0947 21.3801C22.5686 21.3801 22.9197 21.5029 23.1483 21.7479C23.3633 21.9892 23.4716 22.2739 23.4716 22.6035C23.4716 22.943 23.3488 23.2328 23.1033 23.4739C22.8576 23.7149 22.4539 23.8357 21.8913 23.8357H21.6812H19.9836V21.3801H22.0947Z" fill="#00529C"/>
<path d="M31.6265 21.4271C31.9088 21.2344 32.1443 21.0103 32.3326 20.7548C32.5208 20.4992 32.6596 20.2169 32.7494 19.9077C32.839 19.5983 32.884 19.2823 32.884 18.9595C32.884 18.5382 32.8142 18.1506 32.6754 17.7963C32.5362 17.4423 32.3279 17.1375 32.0501 16.882C31.772 16.6265 31.4247 16.4271 31.0079 16.2836C30.591 16.1403 30.1091 16.0684 29.5624 16.0684H29.5132H25.8913H25.8574V25.4814H27.6395V21.9852H28.6332L31.0907 25.4814H33.1796L30.6383 21.8642C31.0145 21.7658 31.3441 21.6201 31.6265 21.4271ZM29.5758 17.682C29.6878 17.682 29.7937 17.6894 29.8944 17.7021C30.2121 17.75 30.4716 17.8634 30.6717 18.0436C30.9439 18.2894 31.08 18.5906 31.08 18.9475C31.08 19.1264 31.0509 19.3004 30.9929 19.4699C30.9348 19.6397 30.8434 19.7892 30.7185 19.9184C30.5933 20.0481 30.4326 20.1528 30.2363 20.2332C30.0398 20.3136 29.8032 20.3537 29.5265 20.3537H27.6395V17.682H29.5758Z" fill="#00529C"/>
<path d="M33.8081 16.0684V16.0711C33.7901 16.0706 33.7725 16.0684 33.7544 16.0684H33.7393V16.069V19.5194V21.9917V25.4814H35.5563V16.0684H33.8081Z" fill="#00529C"/>
</g>
<rect x="0.370841" y="0.370841" width="40.7407" height="40.7407" rx="8.37037" stroke="#D5D7DA" stroke-width="0.740741"/>
<defs>
<clipPath id="clip0_37413_5917">
<rect x="0.741211" y="0.741211" width="40" height="40" rx="8" fill="white"/>
</clipPath>
</defs>
</svg>
