<svg width="42" height="42" viewBox="0 0 42 42" fill="none" xmlns="http://www.w3.org/2000/svg">
<g clip-path="url(#clip0_37413_5912)">
<rect x="0.741211" y="0.741211" width="40" height="40" rx="2.96296" fill="white"/>
<path fill-rule="evenodd" clip-rule="evenodd" d="M5.92969 19.3105L8.42932 22.4637L5.92969 24.535V19.3105Z" fill="#C12116"/>
<path fill-rule="evenodd" clip-rule="evenodd" d="M6.93652 24.5353L8.81737 22.9619L10.1174 24.5353H6.93652Z" fill="#C12116"/>
<path fill-rule="evenodd" clip-rule="evenodd" d="M5.92969 17.6235L6.582 18.4486L9.26406 21.8001L10.1331 21.108C10.1331 21.108 9.41165 20.2586 8.92719 19.3107C7.98003 17.4575 8.6506 16.3037 8.6506 16.3037H5.92969V17.6235Z" fill="#C12116"/>
<path fill-rule="evenodd" clip-rule="evenodd" d="M9.64746 22.318L10.5326 21.5869C10.5326 21.5869 11.3779 22.6997 12.3581 22.9623C13.6426 23.3065 14.2113 22.4644 14.2113 22.4644V24.5358H11.39L12.0262 23.9857C12.0262 23.9857 11.6943 24.207 10.8825 23.6447C10.4034 23.3129 9.64746 22.318 9.64746 22.318Z" fill="#C12116"/>
<path fill-rule="evenodd" clip-rule="evenodd" d="M9.7278 16.2979C9.7278 16.2979 9.44544 16.6825 9.64643 17.6236C9.86126 18.6296 10.7156 19.6943 10.7137 19.6704C10.7137 19.6704 10.7686 18.6133 11.389 17.9929C12.7114 16.6705 14.2103 17.4577 14.2103 17.4577V16.3039L9.7278 16.2979Z" fill="#C12116"/>
<path fill-rule="evenodd" clip-rule="evenodd" d="M14.211 18.852C14.211 18.852 13.3748 18.1357 12.6477 18.1357C11.7176 18.1357 11.21 18.9387 11.21 19.5212C11.21 20.3696 11.6172 20.841 12.0259 21.2497C12.6133 21.8371 13.3279 22.4706 14.211 21.9607C14.211 20.9957 14.211 18.852 14.211 18.852Z" fill="#C12116"/>
<path fill-rule="evenodd" clip-rule="evenodd" d="M23.7344 16.3838H25.7078C25.7078 16.3838 27.4559 19.0308 28.3151 20.1244C29.1742 21.218 30.099 22.4637 30.099 22.4637C30.099 22.4637 30.099 18.8514 30.099 16.9766C30.099 16.7396 29.4768 16.3838 29.4768 16.3838H31.7524C31.7524 16.3838 31.0057 16.6906 31.0057 16.9766C31.0057 19.3105 31.0057 24.9591 31.0057 24.9591C31.0057 24.9591 30.2892 24.5617 29.4768 23.6177C28.5639 22.5569 25.3166 18.2744 25.3166 18.2744C25.3166 18.2744 25.3166 22.3173 25.3166 23.8212C25.3166 24.1053 25.9389 24.535 25.9389 24.535H23.7344C23.7344 24.535 24.3388 24.1018 24.3388 23.8212C24.3388 21.7999 24.3388 18.8514 24.3388 16.9766C24.3388 16.7247 23.7344 16.3838 23.7344 16.3838Z" fill="#005E6A"/>
<path fill-rule="evenodd" clip-rule="evenodd" d="M33.0264 16.3838H35.5591C35.5591 16.3838 34.879 16.7059 34.879 16.9766C34.879 18.8514 34.879 21.96 34.879 23.8212C34.879 24.117 35.5591 24.535 35.5591 24.535H33.0264C33.0264 24.535 33.6595 24.1075 33.6595 23.8212C33.6595 21.5862 33.6595 18.8514 33.6595 16.9766C33.6595 16.7164 33.0264 16.3838 33.0264 16.3838Z" fill="#005E6A"/>
<path fill-rule="evenodd" clip-rule="evenodd" d="M16.2832 16.3838C16.2832 16.3838 16.9398 16.7112 16.9398 16.9766C16.9398 18.8514 16.9398 21.5862 16.9398 23.8212C16.9398 24.1122 16.2832 24.535 16.2832 24.535C16.2832 24.535 19.5636 24.535 20.0354 24.535C20.2699 24.535 22.8964 24.1055 22.8964 22.0806C22.8964 20.0556 20.8562 19.866 20.8562 19.866C20.8562 19.866 22.0991 19.5205 22.0991 18.1351C22.0991 16.6418 20.2699 16.3838 20.0354 16.3838C19.548 16.3838 16.2832 16.3838 16.2832 16.3838ZM18.2765 19.7318V17.1835C18.2765 17.1835 19.3642 17.1835 19.8009 17.1835C20.0354 17.1835 20.8562 17.4573 20.8562 18.4732C20.8562 19.3105 20.0354 19.7318 19.8009 19.7318C19.2692 19.7318 18.2765 19.7318 18.2765 19.7318ZM18.2765 20.4002C18.2765 20.4002 19.8009 20.4002 20.0354 20.4002C20.2699 20.4002 21.6535 20.7596 21.6535 21.96C21.6535 23.1839 20.2699 23.6177 20.0354 23.6177C19.8009 23.6177 18.2765 23.6177 18.2765 23.6177V20.4002Z" fill="#005E6A"/>
</g>
<rect x="0.370841" y="0.370841" width="40.7407" height="40.7407" rx="8.37037" stroke="#D5D7DA" stroke-width="0.740741"/>
<defs>
<clipPath id="clip0_37413_5912">
<rect x="0.741211" y="0.741211" width="40" height="40" rx="8" fill="white"/>
</clipPath>
</defs>
</svg>
