<svg width="42" height="42" viewBox="0 0 42 42" fill="none" xmlns="http://www.w3.org/2000/svg">
<g clip-path="url(#clip0_37413_5922)">
<rect x="0.741211" y="0.741211" width="40" height="40" rx="2.96296" fill="white"/>
<path d="M10.2939 22.9757C10.2939 22.6056 10.2979 21.6164 10.2888 21.4945C10.2968 20.0224 9.22646 18.984 8.55029 19.065C8.08241 19.1056 7.69029 19.2964 7.47974 19.8452C7.2846 20.3567 7.45906 21.037 8.10786 21.1967C8.8016 21.3681 9.2067 21.5108 9.49987 21.712C9.85909 21.9584 10.1523 22.4291 10.1601 22.9763" fill="#0060AF"/>
<path d="M10.5705 25.2137C9.34725 25.2137 8.0901 24.9125 6.83462 24.3166L6.80381 24.3014L6.78908 24.27C6.22568 23.0808 5.92773 21.78 5.92773 20.5074C5.92773 19.2367 6.21345 17.9916 6.77728 16.8039L6.79276 16.7723L6.82416 16.7566C7.98554 16.2064 9.2349 15.9277 10.5387 15.9277C11.7532 15.9277 13.0503 16.238 14.2891 16.8265L14.3209 16.8406L14.3356 16.8728C14.9098 18.084 15.2126 19.3844 15.2126 20.636C15.2126 21.8826 14.9218 23.1288 14.347 24.3393L14.3318 24.3711L14.2998 24.3858C13.1562 24.9272 11.8665 25.2137 10.5705 25.2137ZM6.95082 24.1535C8.17046 24.7272 9.38684 25.0169 10.5705 25.0169C11.8255 25.0169 13.0737 24.7426 14.1848 24.2226C14.7367 23.0496 15.0165 21.8425 15.0165 20.636C15.0165 19.4246 14.7245 18.1645 14.1722 16.989C12.9699 16.4238 11.7144 16.1241 10.5387 16.1241C9.27642 16.1241 8.06657 16.3919 6.94027 16.92C6.39964 18.0712 6.12447 19.2774 6.12447 20.5074C6.12447 21.7397 6.41044 23.0002 6.95082 24.1535Z" fill="#0060AF"/>
<path d="M10.0041 22.9773C10.0063 22.5029 9.74153 22.0834 9.39545 21.858C9.08846 21.6587 8.67633 21.5278 8.01147 21.3592C7.80595 21.3066 7.59097 21.1899 7.52441 21.041C7.34836 21.2184 7.31638 21.6172 7.34736 21.8503C7.38335 22.12 7.69854 22.5645 8.17312 22.582C8.46294 22.5936 8.82937 22.5196 9.00508 22.4823C9.30822 22.4168 9.78782 22.6067 9.86417 22.9768" fill="#0060AF"/>
<path d="M10.5383 16.7715C9.7336 16.7715 9.03851 17.3022 9.04102 18.2204C9.04354 18.9926 9.66453 19.406 9.88613 19.7013C10.221 20.1462 10.4022 20.6729 10.4211 21.4787C10.4357 22.12 10.435 22.7533 10.4382 22.9778H10.6159C10.6128 22.743 10.6047 22.0707 10.6139 21.4589C10.626 20.6528 10.8138 20.1462 11.1488 19.7013C11.3723 19.406 11.9928 18.9926 11.9942 18.2204C11.9972 17.3022 11.3025 16.7715 10.4985 16.7715" fill="#0060AF"/>
<path d="M10.7422 22.9757C10.7422 22.6056 10.738 21.6164 10.747 21.4945C10.7391 20.0224 11.8087 18.984 12.4855 19.065C12.9534 19.1056 13.3451 19.2964 13.5562 19.8452C13.7512 20.3567 13.5757 21.037 12.9277 21.1967C12.2336 21.3681 11.829 21.5108 11.5351 21.712C11.1763 21.9584 10.9035 22.4291 10.8951 22.9763" fill="#0060AF"/>
<path d="M11.0322 22.9773C11.0297 22.5029 11.2944 22.0834 11.6395 21.858C11.9478 21.6587 12.3604 21.5278 13.0247 21.3592C13.2306 21.3066 13.4453 21.1899 13.5107 21.041C13.6876 21.2184 13.7195 21.6172 13.6885 21.8503C13.6518 22.12 13.3374 22.5645 12.8637 22.582C12.5739 22.5936 12.2056 22.5196 12.0306 22.4823C11.7287 22.4168 11.2477 22.6067 11.171 22.9768" fill="#0060AF"/>
<path d="M11.2807 24.5085L11.1777 23.7571L11.4263 23.7194C11.4868 23.7112 11.5605 23.7217 11.5899 23.7596C11.6225 23.7992 11.6325 23.832 11.6388 23.8839C11.6481 23.9481 11.6295 24.0223 11.5572 24.0593V24.0616C11.638 24.0616 11.6868 24.1196 11.701 24.2175C11.703 24.2382 11.7092 24.2882 11.703 24.3299C11.6866 24.4291 11.6275 24.461 11.5276 24.475L11.2807 24.5085ZM11.4407 24.3739C11.4702 24.3697 11.5 24.3682 11.5234 24.3533C11.5591 24.3299 11.5559 24.2799 11.5509 24.2428C11.5385 24.1613 11.5172 24.1303 11.4307 24.1431L11.3764 24.1515L11.4108 24.3781L11.4407 24.3739ZM11.3886 24.0268C11.4215 24.0214 11.4661 24.0175 11.4847 23.9862C11.4944 23.9654 11.5069 23.9488 11.4987 23.9024C11.4886 23.8474 11.4703 23.8134 11.4005 23.8266L11.3355 23.8371L11.3611 24.0296" fill="#0060AF"/>
<path d="M12.3569 24.0569C12.3588 24.0709 12.3611 24.0864 12.3619 24.1004C12.382 24.2375 12.3569 24.3509 12.2029 24.3821C11.9752 24.426 11.9315 24.2845 11.8914 24.0864L11.8701 23.9793C11.8387 23.7897 11.8252 23.6463 12.0472 23.6021C12.1724 23.5792 12.2551 23.629 12.2895 23.7536C12.2949 23.7722 12.3016 23.7906 12.3041 23.8093L12.1679 23.8374C12.1521 23.7906 12.1313 23.707 12.07 23.714C11.96 23.7272 11.9963 23.8641 12.0076 23.9213L12.0486 24.127C12.0609 24.1892 12.0853 24.2885 12.1805 24.2694C12.2578 24.2539 12.2241 24.1335 12.2173 24.0842" fill="#0060AF"/>
<path d="M12.5764 24.2836L12.5293 23.506L12.7123 23.4502L13.096 24.1264L12.9519 24.1696L12.861 23.9977L12.701 24.0457L12.7217 24.2411L12.5764 24.2836ZM12.6876 23.9202L12.8032 23.8867L12.6497 23.5721" fill="#0060AF"/>
<path d="M8.05645 23.6966C8.11371 23.5133 8.16503 23.3783 8.38352 23.4382C8.50047 23.4709 8.57297 23.5225 8.56954 23.6583C8.56897 23.6885 8.55899 23.7194 8.55246 23.7492L8.41642 23.7117C8.43425 23.6366 8.44555 23.5771 8.35313 23.5487C8.24631 23.5194 8.22028 23.6489 8.20554 23.7048L8.15021 23.9086C8.13263 23.9692 8.11153 24.0692 8.20554 24.095C8.28323 24.1159 8.33036 24.0397 8.35849 23.9283L8.26331 23.9031L8.29621 23.7852L8.51998 23.8572L8.41374 24.25L8.31077 24.2221L8.33396 24.139H8.33103C8.28365 24.2069 8.2258 24.214 8.17515 24.2043C7.95138 24.1438 7.97474 23.9975 8.02815 23.8021" fill="#0060AF"/>
<path d="M8.889 24.0279L8.82161 24.3475L8.66992 24.3147L8.83158 23.5684L9.09017 23.6268C9.24153 23.6594 9.28724 23.7268 9.26581 23.8656C9.25358 23.9452 9.21432 24.031 9.11847 24.024L9.11746 24.0227C9.1985 24.0511 9.20536 24.092 9.19122 24.1626C9.18511 24.1927 9.143 24.3751 9.17204 24.4045L9.17305 24.4269L9.01608 24.386C9.00955 24.3354 9.03174 24.2445 9.04053 24.1942C9.0494 24.1496 9.06355 24.0868 9.01834 24.0632C8.98293 24.0444 8.96979 24.0453 8.92977 24.0361L8.889 24.0279ZM8.91487 23.9123L9.017 23.9398C9.07904 23.9488 9.11353 23.9166 9.12575 23.8417C9.1368 23.773 9.12249 23.7461 9.06681 23.7328L8.95732 23.7106" fill="#0060AF"/>
<path d="M9.86129 23.7352L10.0113 23.7526L9.94668 24.2773C9.91529 24.4436 9.85099 24.5164 9.66799 24.4936C9.48181 24.4701 9.43761 24.3853 9.44891 24.2176L9.51396 23.6934L9.66515 23.7107L9.60027 24.2232C9.5934 24.2789 9.58051 24.3613 9.67955 24.3713C9.76736 24.378 9.78729 24.3198 9.79717 24.2475" fill="#0060AF"/>
<path d="M10.1777 24.5227L10.2229 23.7725L10.5111 23.7849C10.6473 23.7916 10.683 23.9029 10.6787 24.009C10.6747 24.0736 10.6546 24.1457 10.5983 24.1848C10.5522 24.218 10.4929 24.2259 10.4379 24.2232L10.344 24.218L10.3252 24.5324L10.1777 24.5227ZM10.3483 24.1036L10.4246 24.1078C10.4866 24.1101 10.5277 24.0856 10.5331 23.9945C10.5361 23.907 10.5031 23.8922 10.4227 23.8887L10.3622 23.8866" fill="#0060AF"/>
<path d="M30.5062 17.4966L29.3606 19.5758C28.9282 19.2247 28.4003 18.9663 27.7266 18.9663C26.1324 18.9663 25.4849 20.1546 25.4849 20.9917C25.4849 21.613 25.8917 22.5298 27.3102 22.5298C27.9056 22.5298 28.752 22.1155 28.9956 21.9271L27.8626 24.3393C27.3226 24.4471 27.1452 24.5139 26.688 24.528C24.1492 24.6038 23.1233 23.0442 23.124 21.4505C23.1257 19.3437 24.9988 16.7815 28.104 16.7815C28.2943 16.7815 28.527 16.8473 28.726 16.9203L28.9271 16.6631" fill="#0060AF"/>
<path d="M35.2333 16.7275L35.5577 24.2847H33.1435L33.1421 22.9886H31.4959L30.9541 24.2847H28.3359L31.0732 18.8882L30.4559 18.8842L31.6287 16.7275H35.2333ZM33.1265 19.0394L32.1957 21.2375H33.1545" fill="#0060AF"/>
<path d="M21.6 16.7276C22.7955 16.7343 23.4711 17.3832 23.4711 18.3207C23.4711 19.1849 22.7586 19.9499 21.9764 20.3454C22.7817 20.6414 22.8513 21.3681 22.8513 21.8822C22.8513 23.1242 21.6051 24.2847 19.9851 24.2847H16.4521L17.8303 18.9634L17.2642 18.9602L18.4214 16.7276C18.4214 16.7276 20.6278 16.7209 21.6 16.7276ZM20.427 19.7916C20.6743 19.7916 21.111 19.7289 21.2201 19.2503C21.3398 18.7308 20.93 18.7168 20.7334 18.7168L20.0311 18.7137L19.7861 19.7916L20.427 19.7916ZM19.434 21.127L19.1106 22.369H19.9376C20.263 22.369 20.7065 22.2075 20.8151 21.8033C20.9225 21.398 20.6125 21.127 20.2882 21.127" fill="#0060AF"/>
</g>
<rect x="0.370841" y="0.370841" width="40.7407" height="40.7407" rx="3.33333" stroke="#D5D7DA" stroke-width="0.740741"/>
<defs>
<clipPath id="clip0_37413_5922">
<rect x="0.741211" y="0.741211" width="40" height="40" rx="2.96296" fill="white"/>
</clipPath>
</defs>
</svg>
