<svg width="42" height="42" viewBox="0 0 42 42" fill="none" xmlns="http://www.w3.org/2000/svg">
<rect x="0.370841" y="0.370841" width="40.7407" height="40.7407" rx="8.37037" stroke="#D5D7DA" stroke-width="0.740741"/>
<path fill-rule="evenodd" clip-rule="evenodd" d="M27.7397 16.6298C27.1693 16.971 25.8239 17.768 25.3217 18.0648C25.0157 18.2258 24.3068 18.2961 23.9058 17.7377C23.8986 17.7276 23.3725 17.0486 23.351 17.0231C23.336 17.005 22.9959 16.4839 22.238 16.4676C22.126 16.4649 21.5693 16.4618 21.0261 16.7807C20.3041 17.2068 18.6249 18.1984 18.6249 18.1984C18.6244 18.1984 18.6244 18.1993 18.6236 18.1993C17.9333 18.6072 17.3955 18.9248 17.3955 18.9248L18.0309 19.7309C18.3282 20.1122 18.9985 20.4071 19.5798 20.0624C19.5798 20.0624 21.7277 18.7776 21.7356 18.7739C22.6646 18.2477 23.3813 18.2477 23.8571 18.4435C24.2841 18.6299 24.6556 19.0943 24.6556 19.0943C24.6556 19.0943 25.1411 19.7158 25.2268 19.8245C25.503 20.1757 25.9603 20.0377 25.9603 20.0377C25.9603 20.0377 26.1297 20.0179 26.3851 19.8613C26.3851 19.8613 28.4657 18.6152 28.467 18.6148C29.1276 18.2144 29.7335 18.1397 30.0432 18.1691C31.0131 18.2602 31.3144 18.9601 31.735 19.4483C31.9827 19.7355 32.2061 19.8986 32.5479 19.8904C32.7724 19.8855 33.0261 19.7448 33.0635 19.7194L35.5549 18.2343C35.5549 18.2343 35.2993 17.8366 34.7758 17.2178C34.3072 16.6658 33.8095 16.9156 33.4127 17.1186C33.246 17.2037 32.642 17.6188 32.0436 17.9083C31.6172 18.1145 31.0047 18.0525 30.669 17.6241C30.649 17.598 30.1059 16.9189 30.0488 16.8354C29.8297 16.5518 29.402 16.2979 28.854 16.2979C28.5207 16.2979 28.1426 16.3917 27.7397 16.6298Z" fill="url(#paint0_linear_37413_5927)"/>
<path fill-rule="evenodd" clip-rule="evenodd" d="M5.95506 22.4369C5.95506 21.9935 5.94725 21.6214 5.92383 21.2896H6.73649L6.7746 21.8596H6.7974C6.98159 21.5584 7.31843 21.2021 7.94675 21.2021C8.43717 21.2021 8.82024 21.4877 8.98085 21.9149H8.99662C9.1271 21.7013 9.27982 21.5431 9.45589 21.4319C9.66296 21.2818 9.90056 21.2021 10.207 21.2021C10.8275 21.2021 11.4553 21.6373 11.4553 22.8721V25.1432H10.5361V23.0148C10.5361 22.3738 10.3219 21.9935 9.87011 21.9935C9.5478 21.9935 9.31004 22.2313 9.21111 22.5085C9.18784 22.6031 9.16489 22.7219 9.16489 22.8319V25.1432H8.24533V22.9115C8.24533 22.3738 8.0388 21.9935 7.60202 21.9935C7.24956 21.9935 7.01235 22.2788 6.92787 22.5473C6.8893 22.6429 6.87384 22.7534 6.87384 22.864V25.1432H5.95506V22.4369Z" fill="#003A70"/>
<path fill-rule="evenodd" clip-rule="evenodd" d="M15.0365 24.2164C15.0365 24.5644 15.0518 24.9041 15.0901 25.1422H14.2394L14.1783 24.715H14.1551C13.9254 25.016 13.5347 25.2293 13.052 25.2293C12.3011 25.2293 11.8799 24.6679 11.8799 24.0819C11.8799 23.1082 12.7146 22.6181 14.0938 22.6259V22.5623C14.0938 22.309 13.9941 21.8899 13.3353 21.8899C12.9674 21.8899 12.5842 22.0087 12.3315 22.1746L12.1474 21.542C12.4237 21.3676 12.9068 21.2012 13.4962 21.2012C14.6919 21.2012 15.0365 21.9851 15.0365 22.8236V24.2164ZM14.1168 23.2582C13.4504 23.2423 12.8146 23.3926 12.8146 23.9783C12.8146 24.3577 13.0521 24.5322 13.351 24.5322C13.7259 24.5322 14.0021 24.2789 14.0862 24.002C14.109 23.9308 14.1168 23.8513 14.1168 23.7883V23.2582Z" fill="#003A70"/>
<path fill-rule="evenodd" clip-rule="evenodd" d="M15.689 22.4369C15.689 21.9935 15.6805 21.6214 15.6582 21.2896H16.4849L16.5311 21.8672H16.5538C16.7149 21.5669 17.1209 21.2021 17.7413 21.2021C18.3928 21.2021 19.0669 21.6373 19.0669 22.8563V25.1432H18.1247V22.9674C18.1247 22.413 17.9255 21.9935 17.4121 21.9935C17.0367 21.9935 16.7763 22.2705 16.6765 22.5635C16.6463 22.6507 16.6384 22.7697 16.6384 22.8797V25.1432H15.689V22.4369Z" fill="#003A70"/>
<path fill-rule="evenodd" clip-rule="evenodd" d="M23.1511 19.7402V24.0579C23.1511 24.4535 23.1662 24.8816 23.1816 25.1424H22.3388L22.3011 24.5332H22.2855C22.0632 24.9607 21.6105 25.2295 21.0671 25.2295C20.1788 25.2295 19.4737 24.4462 19.4737 23.2592C19.4659 21.9692 20.2473 21.2014 21.1436 21.2014C21.6568 21.2014 22.0248 21.4233 22.1931 21.7084H22.2086V19.7402H23.1511ZM22.2092 22.8937C22.2092 22.8154 22.2014 22.72 22.1866 22.6411C22.1022 22.2612 21.8032 21.9524 21.3742 21.9524C20.769 21.9524 20.4318 22.5067 20.4318 23.2268C20.4318 23.9309 20.769 24.4453 21.3665 24.4453C21.7494 24.4453 22.0867 24.1764 22.1786 23.7571C22.2014 23.6696 22.2092 23.5748 22.2092 23.4716V22.8937Z" fill="#003A70"/>
<path fill-rule="evenodd" clip-rule="evenodd" d="M23.8174 25.1434H24.7683V21.29H23.8174V25.1434Z" fill="#003A70"/>
<path fill-rule="evenodd" clip-rule="evenodd" d="M25.4351 22.5308C25.4351 22.0088 25.4272 21.6363 25.4043 21.2885H26.2242L26.2542 22.0242H26.286C26.4696 21.4781 26.9063 21.2885 27.3046 21.2885C27.3963 21.2885 27.4499 21.2722 27.5267 21.2885V22.1434C27.4499 22.1275 27.3658 22.1117 27.2508 22.1117C26.7989 22.1117 26.4922 22.4122 26.408 22.8471C26.3931 22.9342 26.3777 23.0375 26.3777 23.1488V25.1423H25.4351V22.5308Z" fill="#003A70"/>
<path fill-rule="evenodd" clip-rule="evenodd" d="M27.9639 25.1434H28.9134V21.29H27.9639V25.1434Z" fill="#003A70"/>
<defs>
<linearGradient id="paint0_linear_37413_5927" x1="17.3955" y1="20.2151" x2="35.5549" y2="20.2151" gradientUnits="userSpaceOnUse">
<stop stop-color="#FFCA06"/>
<stop offset="0.330844" stop-color="#FBAA18"/>
<stop offset="0.694742" stop-color="#FFC907"/>
<stop offset="1" stop-color="#FAA619"/>
</linearGradient>
</defs>
</svg>
