<svg width="49" height="49" viewBox="0 0 49 49" fill="none" xmlns="http://www.w3.org/2000/svg">
<path d="M24.5009 35.2677L16.028 40.3719C15.6537 40.6101 15.2624 40.7122 14.854 40.6781C14.4457 40.6441 14.0884 40.508 13.7822 40.2698C13.4759 40.0316 13.2377 39.7342 13.0676 39.3776C12.8974 39.021 12.8634 38.6208 12.9655 38.1771L15.2113 28.5302L7.70821 22.0479C7.36793 21.7417 7.1556 21.3925 7.07121 21.0005C6.98682 20.6085 7.012 20.2261 7.14675 19.8531C7.2815 19.4802 7.48567 19.1739 7.75925 18.9344C8.03283 18.6948 8.40714 18.5417 8.88217 18.475L18.7842 17.6073L22.6124 8.52188C22.7825 8.11354 23.0466 7.80729 23.4045 7.60312C23.7625 7.39896 24.128 7.29687 24.5009 7.29688C24.8739 7.29688 25.2393 7.39896 25.5973 7.60312C25.9553 7.80729 26.2193 8.11354 26.3895 8.52188L30.2176 17.6073L40.1197 18.475C40.5961 18.5431 40.9704 18.6962 41.2426 18.9344C41.5148 19.1726 41.719 19.4788 41.8551 19.8531C41.9912 20.2274 42.0171 20.6106 41.9327 21.0026C41.8483 21.3946 41.6353 21.743 41.2936 22.0479L33.7905 28.5302L36.0363 38.1771C36.1384 38.6194 36.1044 39.0196 35.9343 39.3776C35.7641 39.7356 35.5259 40.033 35.2197 40.2698C34.9134 40.5066 34.5561 40.6427 34.1478 40.6781C33.7395 40.7135 33.3481 40.6114 32.9738 40.3719L24.5009 35.2677Z" fill="#A4A7AE"/>
</svg>
