<svg width="49" height="49" viewBox="0 0 49 49" fill="none" xmlns="http://www.w3.org/2000/svg">
<path d="M24.4999 35.2697L16.027 40.3738C15.6527 40.612 15.2614 40.7141 14.8531 40.6801C14.4447 40.646 14.0874 40.5099 13.7812 40.2717C13.4749 40.0336 13.2367 39.7361 13.0666 39.3795C12.8965 39.0229 12.8624 38.6228 12.9645 38.179L15.2104 28.5322L7.70723 22.0499C7.36695 21.7436 7.15462 21.3945 7.07023 21.0025C6.98584 20.6105 7.01102 20.228 7.14577 19.8551C7.28052 19.4821 7.48469 19.1759 7.75827 18.9363C8.03186 18.6968 8.40616 18.5436 8.88119 18.477L18.7833 17.6092L22.6114 8.52383C22.7815 8.1155 23.0456 7.80924 23.4036 7.60508C23.7615 7.40091 24.127 7.29883 24.4999 7.29883C24.8729 7.29883 25.2383 7.40091 25.5963 7.60508C25.9543 7.80924 26.2183 8.1155 26.3885 8.52383L30.2166 17.6092L40.1187 18.477C40.5951 18.545 40.9694 18.6981 41.2416 18.9363C41.5138 19.1745 41.718 19.4808 41.8541 19.8551C41.9902 20.2294 42.0161 20.6125 41.9317 21.0045C41.8473 21.3965 41.6343 21.745 41.2926 22.0499L33.7895 28.5322L36.0354 38.179C36.1374 38.6214 36.1034 39.0216 35.9333 39.3795C35.7631 39.7375 35.5249 40.0349 35.2187 40.2717C34.9124 40.5086 34.5551 40.6447 34.1468 40.6801C33.7385 40.7155 33.3472 40.6134 32.9729 40.3738L24.4999 35.2697Z" fill="#FDB022"/>
</svg>
